HIERARCHY
ROOT Hips
{
  OFFSET 13.6774 106.653 -34.4427
  CHANNELS 6 Xposition Yposition Zposition Zrotation Xrotation Yrotation
  JOINT ToSpine
  {
    OFFSET -2.69724 7.43032 -0.144315
    CHANNELS 3 Zrotation Xrotation Yrotation
    JOINT Spine
    {
      OFFSET -0.0310711 10.7595 1.96963
      CHANNELS 3 Zrotation Xrotation Yrotation
      JOINT Spine1
      {
        OFFSET 19.9056 3.91189 0.764692
        CHANNELS 3 Zrotation Xrotation Yrotation
        JOINT Neck
        {
          OFFSET 25.9749 7.03908 -0.130764
          CHANNELS 3 Zrotation Xrotation Yrotation
          JOINT Head
          {
            OFFSET 9.52751 0.295786 -0.907742
            CHANNELS 3 Zrotation Xrotation Yrotation
            End Site
            {
              OFFSET 16.4037 0.713936 2.7358
            }
          }
        }
        JOINT LeftShoulder
        {
          OFFSET 17.7449 4.33886 11.7777
          CHANNELS 3 Zrotation Xrotation Yrotation
          JOINT LeftArm
          {
            OFFSET 0.911315 1.27913 9.80584
            CHANNELS 3 Zrotation Xrotation Yrotation
            JOINT LeftForeArm
            {
              OFFSET 28.6126 1.18197 -3.53199
              CHANNELS 3 Zrotation Xrotation Yrotation
              JOINT LeftHand
              {
                OFFSET 27.5088 0.0218783 0.327423
                CHANNELS 3 Zrotation Xrotation Yrotation
                End Site
                {
                  OFFSET 18.6038 -0.000155887 0.382096
                }
              }
            }
          }
        }
        JOINT RightShoulder
        {
          OFFSET 17.1009 2.89543 -12.2328
          CHANNELS 3 Zrotation Xrotation Yrotation
          JOINT RightArm
          {
            OFFSET 1.4228 0.178766 -10.211
            CHANNELS 3 Zrotation Xrotation Yrotation
            JOINT RightForeArm
            {
              OFFSET 28.733 1.87905 2.64907
              CHANNELS 3 Zrotation Xrotation Yrotation
              JOINT RightHand
              {
                OFFSET 27.4588 0.290562 -0.101845
                CHANNELS 3 Zrotation Xrotation Yrotation
                End Site
                {
                  OFFSET 17.8396 -0.255518 -0.000602873
                }
              }
            }
          }
        }
      }
    }
  }
  JOINT LeftUpLeg
  {
    OFFSET -5.61296 -2.22332 -10.2353
    CHANNELS 3 Zrotation Xrotation Yrotation
    JOINT LeftLeg
    {
      OFFSET 2.56703 -44.7417 -7.93097
      CHANNELS 3 Zrotation Xrotation Yrotation
      JOINT LeftFoot
      {
        OFFSET 3.16933 -46.5642 -3.96578
        CHANNELS 3 Zrotation Xrotation Yrotation
        JOINT LeftToeBase
        {
          OFFSET 0.346054 -6.02161 12.8035
          CHANNELS 3 Zrotation Xrotation Yrotation
          End Site
          {
            OFFSET 0.134235 -1.35082 5.13018
          }
        }
      }
    }
  }
  JOINT RightUpLeg
  {
    OFFSET -5.7928 -1.72406 10.6446
    CHANNELS 3 Zrotation Xrotation Yrotation
    JOINT RightLeg
    {
      OFFSET -2.57161 -44.7178 -7.85259
      CHANNELS 3 Zrotation Xrotation Yrotation
      JOINT RightFoot
      {
        OFFSET -3.10148 -46.5936 -4.03391
        CHANNELS 3 Zrotation Xrotation Yrotation
        JOINT RightToeBase
        {
          OFFSET -0.0828122 -6.13587 12.8035
          CHANNELS 3 Zrotation Xrotation Yrotation
          End Site
          {
            OFFSET -0.131328 -1.35082 5.13018
          }
        }
      }
    }
  }
}
MOTION
Frames: 12
Frame Time: 0.03333333333333333
0.0000 93.1000 0.0000 53.4318 -41.8245 -6.8824 -70.9876 -0.0627 88.0688 92.2823 72.1907 -27.0564 1.3891 21.8598 -1.0193 -130.7304 25.6385 153.7163 145.1121 63.0682 -121.5599 -0.3881 -20.0448 -22.1320 -61.6645 19.1122 -162.1527 28.1808 -1.9695 -92.3763 -0.4082 -0.0826 -0.0427 -3.6732 7.9570 48.5126 -120.3863 -12.1377 71.5094 14.5375 -10.8230 56.8271 0.2314 0.0742 0.1906 -17.9591 28.5254 81.1828 -8.5348 65.3180 -3.5847 -0.4054 -20.4048 -1.9741 3.7801 -11.4531 12.7390 -27.2696 -4.7559 59.0833 4.2151 30.6897 17.9550 0.2755 9.4455 -1.0662 -1.3521 -5.1493 8.3464 
0.0000 93.1000 0.0000 54.3091 -41.7155 -6.3417 -70.9896 -0.0074 88.0582 91.0870 71.8894 -25.4912 0.6871 21.2728 -0.2269 -129.8658 25.2929 154.9237 145.1425 62.9974 -122.2742 -0.5885 -19.8444 -22.2250 -62.9135 20.9831 -160.2017 27.0925 -2.3509 -93.1648 -0.2128 0.1851 -0.2494 -3.5819 8.2623 48.6625 -120.3728 -11.9961 71.9287 15.6666 -10.1951 59.9208 -0.2271 0.3726 0.0432 -20.9013 27.9900 83.1056 -7.9324 64.0245 -3.7479 -0.4898 -19.9748 -2.2843 4.1785 -11.9457 12.6906 -28.0910 -5.3567 61.3366 5.2218 29.8386 16.2649 0.1390 7.9442 -0.8517 -1.2403 -5.0238 8.9362 
0.0000 93.1000 0.0000 55.3920 -41.3369 -7.7155 -70.9979 -0.0492 88.0683 90.1593 71.5773 -23.2544 0.6690 20.9180 0.0375 -126.2849 24.8197 153.0815 149.7301 63.4331 -123.1177 -0.1766 -18.8881 -22.0161 -63.1924 22.7248 -159.2099 26.4524 -3.0814 -93.9472 -0.1199 -0.0697 -0.1826 -3.5153 7.5648 49.0183 -121.1489 -11.1652 73.5644 16.0813 -9.1463 62.9420 0.1146 0.1146 0.1628 -23.9004 27.1423 85.1249 -7.3751 62.2089 -4.0983 -0.0599 -19.7265 -2.1584 3.7014 -11.9284 12.1701 -29.4133 -5.9495 64.0584 4.7722 29.7366 14.2902 0.3891 7.2976 -0.9406 -1.2440 -3.8373 10.4105 
0.0000 93.1000 0.0000 57.2480 -41.2701 -7.6147 -71.0021 0.0649 88.0712 87.0053 71.6991 -20.9436 1.0110 20.6529 0.7351 -124.8783 24.3502 152.5186 152.8769 64.0474 -124.9850 -0.6936 -18.3940 -22.1344 -64.5241 23.8280 -156.1597 26.2184 -3.1298 -94.8933 0.0763 0.5262 -0.6401 -3.4190 6.8618 48.0566 -122.8477 -10.7497 73.9419 17.7998 -8.7592 65.6205 -0.4847 0.7804 -0.1569 -27.5015 26.1189 88.3922 -6.8396 60.1396 -5.5523 -0.1876 -19.2003 -2.7387 3.8751 -11.2874 12.1880 -30.7339 -5.9443 66.9742 6.1477 28.6698 10.3421 1.4774 7.7765 -0.7774 -2.1385 -3.5293 10.4484 
0.0000 93.1000 0.0000 57.9416 -40.9237 -8.8010 -71.0197 0.0257 88.0941 86.0017 71.3920 -18.2637 1.2749 20.5501 0.3741 -122.5922 24.1830 152.1009 155.6652 64.7123 -125.5921 -0.4201 -18.4269 -22.0573 -65.9542 24.8055 -154.0727 25.0116 -2.7717 -94.8818 0.0047 0.2884 -0.4136 -3.3028 6.9095 47.0261 -124.1055 -11.1320 74.6204 19.0137 -7.7676 68.6953 -0.2904 0.5179 -0.1718 -30.6061 25.3827 90.5302 -6.0213 57.9238 -6.1700 -0.3517 -19.0826 -2.4691 3.4989 -11.2033 11.8019 -31.8831 -5.8505 70.7034 6.0477 26.7378 8.9734 1.5272 6.9797 -0.9567 -2.3430 -2.2825 10.1382 
0.0000 93.1000 0.0000 59.1802 -40.9587 -9.5244 -71.0387 0.0217 88.0993 82.8479 71.0977 -14.4711 1.3738 20.4369 0.1557 -121.9268 24.3882 152.5942 156.9770 65.6307 -127.1758 -0.4073 -17.9685 -21.9363 -67.0213 25.9997 -153.1541 25.4399 -3.2525 -95.8067 0.1629 0.2288 -0.3836 -3.1811 7.5873 45.0735 -126.1533 -12.1680 74.8047 19.9374 -7.1557 71.6286 -0.1393 0.4864 -0.2862 -32.9047 24.0163 92.3165 -5.9904 55.5848 -6.8611 -0.0971 -18.9233 -2.4600 3.1729 -11.9471 13.1194 -33.8947 -5.6196 73.0563 5.3069 25.9582 6.6360 1.9018 6.9752 -1.0480 -1.8958 -2.1370 10.3958 
0.0000 93.1000 0.0000 60.3718 -40.0842 -9.5684 -71.0533 -0.0170 88.1234 81.1155 70.8895 -10.2509 2.1030 20.2553 0.8271 -122.2879 24.4498 152.8155 158.7230 66.8136 -128.4339 -0.1452 -17.5174 -21.8526 -67.1640 27.8070 -152.2540 25.2698 -4.0286 -95.9865 0.0616 0.0172 -0.2626 -2.9755 7.7114 43.1204 -127.3750 -12.4553 75.3170 20.4066 -6.2501 74.1031 0.2119 0.2731 -0.0606 -35.5694 21.9885 93.4986 -5.1487 53.1667 -7.0443 0.3206 -18.3372 -2.2331 3.4333 -11.7862 13.1839 -34.4875 -5.8089 76.2689 4.4218 25.5365 5.6934 1.6015 6.8832 -1.1443 -1.9171 -2.1216 10.5595 
0.0000 93.1000 0.0000 60.1141 -40.1976 -11.0619 -71.0579 0.0269 88.1138 78.2270 70.7089 -5.5619 2.7958 20.1441 0.8056 -122.9137 24.9778 153.1685 160.7784 67.6144 -131.1798 -0.2941 -17.5320 -21.7728 -68.0484 30.0457 -151.2792 25.2453 -3.9999 -95.8084 0.0472 0.2301 -0.2875 -2.8733 7.6499 42.3619 -128.9951 -12.8205 76.1558 21.0619 -5.0778 76.8683 -0.0410 0.4956 -0.1473 -37.9362 21.1733 94.7382 -4.6732 51.0349 -5.9670 0.0510 -18.6424 -2.3465 2.8314 -9.9412 11.0190 -35.5594 -6.5453 78.0364 3.8585 24.7683 5.1635 0.8768 7.1398 -0.9215 -1.0231 -4.6871 11.0603 
0.0000 93.1000 0.0000 61.1880 -39.8664 -11.4138 -71.0715 0.0727 88.1273 77.8361 70.8213 -3.5851 2.6185 20.1426 0.5772 -120.7354 25.1379 151.7362 166.8795 68.8455 -135.8244 -0.4904 -17.9401 -21.0349 -67.7363 30.8325 -150.1948 25.0590 -4.0172 -96.3447 0.0735 0.4484 -0.4352 -2.8231 7.2517 41.8169 -130.0320 -11.8289 78.0880 21.0622 -4.7410 78.6313 -0.5052 0.7221 -0.2525 -40.5799 20.2838 95.2616 -3.9630 48.9101 -6.4396 -0.0587 -17.8464 -2.4640 2.2525 -9.3805 10.8117 -36.6251 -7.6076 78.8111 3.1413 23.7963 4.3370 0.6402 7.3062 -0.7780 -0.9062 -5.1770 9.9186 
0.0000 93.1000 0.0000 61.9134 -39.1995 -12.0017 -71.0854 0.1165 88.1346 75.7521 70.7665 -0.8515 3.5621 19.6998 0.8410 -120.9100 25.7194 153.0828 163.2659 69.9576 -134.1006 -0.7187 -17.9585 -21.7961 -68.6173 31.2895 -148.0221 24.9980 -4.2127 -96.8504 0.0753 0.6535 -0.6368 -2.7937 7.6459 41.3259 -131.9535 -10.9344 79.2706 21.7074 -4.3153 79.6798 -0.6541 0.9509 -0.3823 -42.9114 18.2416 95.4575 -4.3939 47.5584 -6.1809 -0.5318 -17.9345 -2.6290 2.4471 -9.0059 10.8293 -37.6230 -8.1234 79.3174 3.0933 24.1583 3.0453 0.0405 6.3330 -0.6482 -1.7208 -5.6025 12.1375 
0.0000 93.1000 0.0000 63.3145 -38.9887 -12.3580 -71.0839 0.1288 88.1389 74.7525 71.2717 0.9680 3.8888 19.6423 1.5457 -120.5458 26.3407 151.5805 171.1237 70.7276 -139.5349 -0.6374 -18.1193 -22.0923 -67.8341 33.0421 -148.1026 24.7532 -4.3872 -98.0800 -0.0878 0.7270 -0.7587 -2.5762 7.2857 39.8878 -133.0625 -10.9068 80.4801 22.6516 -3.6882 80.6085 -0.7738 0.9956 -0.3308 -44.9457 16.1279 95.1699 -4.2465 45.9389 -4.8782 -1.1247 -18.0220 -2.7091 2.1335 -8.9445 11.4369 -38.6518 -8.4732 80.2997 2.5787 23.6862 4.4069 0.3686 5.9014 -0.6520 -1.1894 -6.0052 10.8939 
0.0000 93.1000 0.0000 64.0278 -38.7635 -11.7155 -71.0837 -0.5634 88.2119 75.1780 70.7503 -0.0969 2.8505 19.3360 1.5777 -121.8501 26.3378 151.9854 172.7714 71.2856 -143.9976 3.0473 -17.9232 -22.3386 -68.3234 34.2666 -147.6013 23.4103 -3.4045 -98.1891 -0.9301 -2.8199 2.1306 -2.4362 7.3696 38.9356 -132.5715 -12.0900 82.9428 21.8032 -3.1329 81.7690 2.2628 -2.9673 1.8806 -46.7794 14.5280 95.3150 -3.1422 44.0923 -5.6232 -0.5261 -17.8158 0.4826 1.1055 -7.8048 12.4424 -39.5631 -9.4373 79.8635 1.4277 24.5281 4.7738 -0.7919 5.8177 -2.2846 -2.0848 -3.8142 11.5633 
